<svg width="51" height="48" viewBox="0 0 51 48" fill="none" xmlns="http://www.w3.org/2000/svg">
<path d="M4.5 45V46.5H6H35.567C43.2817 46.5 49.5 40.1408 49.5 32.4063C49.5 28.4765 47.8749 24.7779 45.1295 22.1286C46.1583 20.0611 46.6546 17.8593 46.6546 15.6567C46.6546 7.93686 40.4508 1.5 32.7835 1.5H6H3.32788L4.71946 3.78117L13.1318 17.5713L13.5456 18.2496H6H4.5V19.7496V45ZM15.9124 16.7901V13.0637H32.7835C34.1568 13.0637 35.3041 14.1929 35.3041 15.6567C35.3041 17.1204 34.1568 18.2496 32.7835 18.2496H15.9124V16.7901ZM38.0876 32.4063C38.0876 33.8222 36.9255 34.9993 35.567 34.9993H15.9124V29.8133H35.567C36.9403 29.8133 38.0876 30.9425 38.0876 32.4063Z" fill="#F8B304" stroke="black" stroke-width="3"/>
</svg>
