<svg width="62" height="57" viewBox="0 0 62 57" fill="none" xmlns="http://www.w3.org/2000/svg">
<path d="M6 53V55H8H43.1988C52.4662 55 60 47.5038 60 38.3074C60 33.7064 58.0864 29.3825 54.8592 26.259C56.0406 23.8629 56.6127 21.3159 56.6127 18.7661C56.6127 9.58909 49.0983 2 39.8851 2H8H4.39921L6.30208 5.05692L16.3168 21.1454L16.5632 21.5412H8H6V23.5412V53ZM20.0147 20.0885V15.991H39.8851C41.436 15.991 42.6716 17.2305 42.6716 18.7661C42.6716 20.3018 41.436 21.5412 39.8851 21.5412H20.0147V20.0885ZM45.9853 38.3074C45.9853 39.7895 44.7298 41.0825 43.1988 41.0825H20.0147V35.5322H43.1988C44.7497 35.5322 45.9853 36.7717 45.9853 38.3074Z" fill="white" stroke="black" stroke-width="4"/>
</svg>
